<svg xmlns="http://www.w3.org/2000/svg" width="100%" height="100%" viewBox="0 0 1200 300"><defs><linearGradient id="bgGrad" x1="0%" x2="100%" y1="0%" y2="100%"><stop offset="0%" stop-color="#0f172a"/><stop offset="50%" stop-color="#1e1b4b"/><stop offset="100%" stop-color="#090d16"/></linearGradient><linearGradient id="textGrad" x1="0%" x2="100%" y1="0%" y2="0%"><stop offset="0%" stop-color="#38bdf8"/><stop offset="50%" stop-color="#818cf8"/><stop offset="100%" stop-color="#c084fc"/></linearGradient><linearGradient id="accentGrad" x1="0%" x2="100%" y1="0%" y2="0%"><stop offset="0%" stop-color="#0ea5e9" stop-opacity=".8"/><stop offset="100%" stop-color="#6366f1" stop-opacity=".8"/></linearGradient><filter id="glow" width="140%" height="140%" x="-20%" y="-20%"><feGaussianBlur result="blur" stdDeviation="8"/><feComposite in="SourceGraphic" in2="blur" operator="over"/></filter></defs><style>@keyframes flow{0%{stroke-dashoffset:210}}@keyframes pulse{0%{transform:scale(1);opacity:.4}50%{transform:scale(1.05);opacity:.8}}.badge-text,.subtitle,.title{font-family:system-ui,-apple-system,&apos;Segoe UI&apos;,Roboto,Helvetica,Arial,sans-serif}.title{font-size:46px;font-weight:800;fill:url(#textGrad)}.subtitle{font-size:20px;font-weight:500;fill:#94a3b8}.badge-text{font-size:13px;font-weight:600;fill:#e2e8f0}.grid-line{stroke:#334155;stroke-opacity:.3;stroke-dasharray:4 4}.flow-line{fill:none;stroke:#38bdf8;stroke-width:2;stroke-dasharray:10 200;animation:flow 4s linear infinite}.pulse-circle{transform-origin:1000px 150px;animation:pulse 6s ease-in-out infinite}</style><rect width="1200" height="300" fill="url(#bgGrad)" rx="16"/><line x1="100" x2="100" y1="0" y2="300" class="grid-line"/><line x1="300" x2="300" y1="0" y2="300" class="grid-line"/><line x1="500" x2="500" y1="0" y2="300" class="grid-line"/><line x1="700" x2="700" y1="0" y2="300" class="grid-line"/><line x1="900" x2="900" y1="0" y2="300" class="grid-line"/><line x1="1100" x2="1100" y1="0" y2="300" class="grid-line"/><line x1="0" x2="1200" y1="75" y2="75" class="grid-line"/><line x1="0" x2="1200" y1="150" y2="150" class="grid-line"/><line x1="0" x2="1200" y1="225" y2="225" class="grid-line"/><g class="pulse-circle" opacity=".6"><circle cx="1000" cy="150" r="110" fill="none" stroke="#475569" stroke-dasharray="6 6" stroke-width="1.5"/><circle cx="1000" cy="150" r="80" fill="none" stroke="#64748b" stroke-width="1"/><ellipse cx="1000" cy="150" fill="none" stroke="#38bdf8" stroke-opacity=".5" stroke-width="1.5" rx="110" ry="40"/><ellipse cx="1000" cy="150" fill="none" stroke="#818cf8" stroke-opacity=".5" stroke-width="1.5" rx="40" ry="110"/></g><path fill="none" stroke="#38bdf8" stroke-opacity=".3" stroke-width="2" d="M 600,220 Q 800,100 1000,150"/><path d="M 600,220 Q 800,100 1000,150" class="flow-line"/><path fill="none" stroke="#818cf8" stroke-opacity=".3" stroke-width="2" d="M 700,260 Q 900,180 1100,110"/><circle cx="1000" cy="150" r="6" fill="#38bdf8" filter="url(#glow)"/><circle cx="850" cy="130" r="4" fill="#818cf8"/><circle cx="720" cy="190" r="5" fill="#c084fc"/><g><g transform="translate(60, 0) translate(0, 50)"><rect width="260" height="28" fill="url(#accentGrad)" rx="14"/><text x="130" y="18" class="badge-text" text-anchor="middle">🌐 GLOBAL TRADE &amp; COMPLIANCE</text></g><text x="0" y="130" class="title" filter="url(#glow)" transform="translate(60, 0)">Awesome Global Trade Management</text><text x="0" y="172" class="subtitle" transform="translate(60, 0)">Curated SaaS Platforms, Trade Compliance Tools &amp; Open-Source Ecosystem</text><g><g transform="translate(60, 0) translate(0, 205) translate(0, 0)"><rect width="145" height="30" fill="#1e293b" stroke="#334155" stroke-width="1" rx="8"/><text x="72" y="19" fill="#38bdf8" class="badge-text" text-anchor="middle">🛃 Customs &amp; Tariffs</text></g><g transform="translate(60, 0) translate(0, 205) translate(155, 0)"><rect width="165" height="30" fill="#1e293b" stroke="#334155" stroke-width="1" rx="8"/><text x="82" y="19" fill="#818cf8" class="badge-text" text-anchor="middle">⚖️ Denied-Party Screening</text></g><g transform="translate(60, 0) translate(0, 205) translate(330, 0)"><rect width="145" height="30" fill="#1e293b" stroke="#334155" stroke-width="1" rx="8"/><text x="72" y="19" fill="#c084fc" class="badge-text" text-anchor="middle">📦 Supply Chain GTM</text></g><g transform="translate(60, 0) translate(0, 205) translate(485, 0)"><rect width="140" height="30" fill="#1e293b" stroke="#334155" stroke-width="1" rx="8"/><text x="70" y="19" fill="#34d399" class="badge-text" text-anchor="middle">⭐ Open Source</text></g></g></g></svg>